<?xml version="1.0" encoding="utf-8"?>
<!-- Generator: Adobe Illustrator 16.0.4, SVG Export Plug-In . SVG Version: 6.00 Build 0)  -->
<!DOCTYPE svg PUBLIC "-//W3C//DTD SVG 1.1//EN" "http://www.w3.org/Graphics/SVG/1.1/DTD/svg11.dtd">
<svg version="1.1" xmlns="http://www.w3.org/2000/svg" xmlns:xlink="http://www.w3.org/1999/xlink" x="0px" y="0px"
	 width="163.297px" height="137.887px" viewBox="0 0 163.297 137.887" enable-background="new 0 0 163.297 137.887"
	 xml:space="preserve">
<g id="Layer_1">
	<g>
		<polygon fill="#D66432" points="83.249,96.676 61.476,40.254 51.304,69.146 0,69.146 0,62.146 46.347,62.146 61.175,20.031 
			83.163,77.011 112.113,0 134.944,62.146 163.297,62.146 163.297,69.146 130.058,69.146 112.037,20.094 		"/>
	</g>
	<g>
		<path fill="#3A608F" d="M43.641,137.887h-7.809V112.4H7.809v25.486H0V80.176h7.809v26.08h28.023v-26.08h7.809V137.887z"/>
		<path fill="#3A608F" d="M64.707,80.176L83.1,127.066h0.236l18.393-46.891h9.988v57.711h-7.809v-22.832l0.793-23.465l-0.199-0.039
			l-18.707,46.336h-5.193L61.973,91.67l-0.198,0.039l0.753,23.346v22.832h-7.809V80.176H64.707z"/>
		<path fill="#3A608F" d="M163.297,86.318h-18.551v51.568h-7.807V86.318h-18.512v-6.143h44.869V86.318z"/>
	</g>
</g>
<g id="Layer_2">
</g>
</svg>
